<svg width="2000" height="2000" viewBox="0 0 2000 2000" fill="none" xmlns="http://www.w3.org/2000/svg">
<path d="M938.848 1.80088C752.078 13.8449 577.177 75.1124 424.794 182.112C334.726 245.125 252.337 326.641 187.579 417.058C109.205 526.327 52.9998 651.132 24.1988 780.998C-25.1992 1002.5 1.50716 1233.09 99.9541 1435.56C165.236 1569.62 252.686 1680.29 368.414 1775.24C486.585 1872.29 631.114 1942.46 780.879 1975.8C1002.38 2025.2 1232.97 1998.49 1435.45 1900.05C1569.5 1834.76 1680.17 1747.31 1775.12 1631.59C1872.17 1513.41 1942.34 1368.89 1975.68 1219.12C2025.08 997.616 1998.37 767.034 1899.93 564.554C1834.64 430.499 1747.19 319.833 1631.47 224.877C1513.3 127.827 1368.77 57.6573 1219 24.318C1129.11 4.24459 1027.52 -3.95932 938.848 1.80088ZM1083.73 103.739C1198.06 114.736 1301.39 144.409 1404.2 195.902C1643.51 315.993 1818.24 538.546 1877.58 799.326C1893.12 867.052 1899.23 923.432 1899.4 997.441C1899.75 1102.35 1885.61 1190.32 1853.5 1286.32C1754.18 1582.89 1505.27 1808.41 1200.67 1877.7C1132.95 1893.24 1076.57 1899.35 1002.56 1899.52C897.653 1899.87 809.68 1885.73 713.676 1853.62C417.114 1754.3 191.593 1505.39 122.297 1200.79C106.762 1133.07 100.652 1076.69 100.478 1002.68C100.129 897.773 114.267 809.799 146.385 713.796C257.399 382.497 553.264 143.537 899.573 105.484C958.223 99.0259 1026.65 98.3277 1083.73 103.739ZM420.43 982.081V1343.93H465.814H511.197L511.546 1124.34L512.07 904.929L524.463 921.511C531.27 930.588 577.177 994.299 626.401 1062.9L765.693 1254.38C768.485 1255.43 956.652 988.888 1044.8 859.022L1118.64 750.451V685.518C1118.64 629.836 1118.29 620.934 1116.19 623.029C1114.8 624.425 1048.29 717.112 968.172 828.999L770.056 1104.62L766.565 1108.81L738.812 1069.71L569.672 830.745L424.445 625.473L420.605 620.411L420.43 982.081ZM1396.7 637.691L1368.42 679.409C1356.72 696.515 1347.3 710.828 1347.3 711.352C1347.3 711.701 1355.33 712.05 1364.93 712.05C1405.42 712.05 1456.39 724.443 1503.52 745.564L1528.48 756.735L1534.24 759.353L1551.35 723.919L1569.5 685.344C1570.37 682.9 1566.36 680.282 1546.64 670.332C1503.17 648.513 1456.57 634.026 1410.14 627.742C1404.2 626.869 1403.68 627.393 1396.7 637.691ZM1238.55 870.543C1220.4 895.503 1185.14 949.963 1186.01 951.534C1186.54 952.407 1194.91 959.04 1204.51 966.197C1225.81 982.081 1266.65 1002.33 1317.62 1022.75C1420.78 1063.77 1461.98 1094.32 1474.02 1139.18C1477.69 1152.97 1477.69 1187.7 1473.85 1201.67C1463.2 1241.81 1433.53 1268 1380.46 1284.05C1367.37 1288.07 1361.61 1288.77 1333.33 1289.29C1305.23 1289.99 1298.6 1289.64 1282.71 1286.32C1256.18 1280.91 1220.05 1268.52 1193.69 1255.6L1169.95 1244.43C1168.91 1244.43 1169.08 1282.48 1170.48 1314.95L1171.52 1344.1L1177.81 1346.72C1204.69 1358.06 1244.66 1369.24 1278.35 1374.82C1307.5 1379.53 1368.94 1379.18 1396.35 1373.95C1472.97 1359.46 1530.05 1318.96 1559.9 1258.22C1564.79 1248.27 1570.9 1232.91 1573.52 1224.36C1577.88 1210.04 1578.4 1205.51 1579.1 1173.04C1579.63 1149.65 1579.1 1132.72 1577.71 1124.17C1571.25 1083.32 1551.87 1047.19 1520.63 1017.34C1492.18 990.285 1463.55 975.099 1375.23 940.712C1344.68 928.843 1299.47 906.849 1281.84 895.154C1274.16 890.092 1262.64 880.667 1256.18 874.208L1244.49 862.339L1238.55 870.543Z" fill="white"/>
</svg>
